<?xml version="1.0" encoding="UTF-8"?>
<svg id="Layer_2" data-name="Layer 2" xmlns="http://www.w3.org/2000/svg" viewBox="0 0 118.39 39.32">
  <defs>
    <style>
      .cls-1 {
        fill: #e7efef;
      }

      .cls-1, .cls-2, .cls-3, .cls-4, .cls-5, .cls-6, .cls-7, .cls-8, .cls-9, .cls-10, .cls-11, .cls-12, .cls-13, .cls-14, .cls-15 {
        stroke-width: 0px;
      }

      .cls-2 {
        fill: #92cfab;
      }

      .cls-3 {
        fill: #aecbd6;
      }

      .cls-4 {
        fill: #0e242f;
      }

      .cls-5 {
        fill: #92d0ac;
      }

      .cls-6 {
        fill: #4e6c7e;
      }

      .cls-7 {
        fill: #478d7d;
      }

      .cls-8 {
        fill: #fcfdfd;
      }

      .cls-9 {
        fill: #496679;
      }

      .cls-10 {
        fill: #0e2533;
      }

      .cls-11 {
        fill: #4d9f8b;
      }

      .cls-12 {
        fill: #4d7f83;
      }

      .cls-13 {
        fill: #f4f7f6;
      }

      .cls-14 {
        fill: #92ceb0;
      }

      .cls-15 {
        fill: #0c2330;
      }
    </style>
  </defs>
  <g id="Layer_1-2" data-name="Layer 1">
    <g>
      <path class="cls-15" d="M30.11,32.05c0,.05.01.1.02.16-.19.04-.23.16-.19.33.09.45.02.85-.3,1.2-.14.15-.15.34.02.53.04-.1-.04-.18,0-.25.04-.07.07-.19.18-.15.1.03.06.13.06.21,0,.12-.15.18-.13.28.06.27-.09.3-.29.29-.13,0-.24.04-.3.17-.06.14.02.21.13.28.08.05.18.17.03.21-.38.12-.29.48-.43.72h0s.01,0,.01,0c-.09-.01-.18-.03-.25.05-.3.33-.73.46-1.08.71-.32.22-.61.2-.94.16-.23-.03-.48.07-.65.17-.13.08-.27.13-.4.16-.25.05-.35.15-.35.42,0,0,0,.02-.01.02-.07-.05-.16-.07-.19-.17-.02-.09-.08-.12-.17-.14-.61-.13-.73-.04-.73.59,0,0,0,.02,0,.03.02.25-.09.36-.34.34-.09,0-.18,0-.26,0-.16,0-.24-.09-.24-.25,0-.15.06-.22.21-.23.2-.02.31-.24.16-.37-.16-.13-.28-.29-.43-.42.01-.13-.06-.19-.18-.21-.96-.24-1.85-.64-2.69-1.17-.06-.04-.12-.07-.19-.03-.02-.16-.12-.22-.26-.15-.16.08-.32.08-.49.08q-.39,0-.48.38c-.02.06-.03.13-.11.12-.08,0-.09-.07-.1-.14,0-.12-.05-.22-.13-.31-.13-.15-.1-.24.11-.27.08-.01.17,0,.2-.09.06-.17.23-.21.36-.29.12-.08.31-.07.23-.3-.02-.06.06-.1.12-.12.24-.07.29-.25.28-.47.08-.1.16-.21.25-.3.83-.82,1.59-1.72,2.35-2.6.42-.37.88-.64,1.44-.72.3-.04.6.04.89.04.06.03.13.08.19.02.05-.05,0-.1-.03-.14-.3-.42-.65-.79-1.08-1.06-.75-.46-1.6-.54-2.45-.45-1.02.11-1.99.37-2.94.78-.43.18-.87.33-1.3.52-1.24.56-2.52,1.05-3.62,1.86-.08.01-.17.02-.22.1h0c-.07-.02-.14.02-.2.04-.45.1-.72-.1-.73-.56,0-.16.03-.33.04-.49.13-.36.22-.73.41-1.07.07-.12.07-.23,0-.36-.1-.2-.17-.41-.26-.61.01-.07.04-.13.12-.07.1.09.15.24.32.25.04,0,.03.07.02.12-.09.3-.07.54.27.67.07.03.1.16.19.1.08-.05.01-.14,0-.22-.03-.12-.02-.25.11-.29.11-.04.25-.11.37-.03.06.04.04.2.18.13.11-.06.08-.17.07-.26-.02-.17.03-.29.22-.32.39-.06.55-.28.48-.67,0-.02,0-.05.02-.08.02-.05.04-.11,0-.15-.06-.05-.11,0-.16.04-.08.05-.13.11-.17.2-.04.08-.11.14-.19.09-.11-.08-.23-.03-.34-.08.08-.06.17-.13.25-.19,1.31-.79,2.66-.69,4.01-.13.19.08.33.08.51,0,1.15-.45,2.34-.65,3.57-.47.32.05.32.05.26-.26-.14-.73-.38-1.43-.62-2.13-.38-1.08-.88-2.09-1.43-3.08-.11-.19-.22-.38-.34-.56-.09-.13-.09-.2.07-.28.68-.34,1.26-.81,1.85-1.29.14-.11.3-.21.4-.37l.2-.17s.05-.01.05-.04c.4-.29.71-.67,1.05-1.02,1.04-1.07,1.87-2.27,2.26-3.73.08-.29.13-.59.15-.91-.68.4-.98.45-1.75.33-.59-.1-1.18-.21-1.78-.22-1.36-.01-2.7.1-4,.55-.58.2-1.18.36-1.76.55-1.33.42-2.64.9-4.04,1-.94.06-1.87.05-2.73-.42-.33-.2-.67-.39-.94-.68-.19-.2-.3-.43-.3-.71,0-.26.07-.49.33-.61.26-.12.5-.05.7.14.18.17.33.36.55.49.54.31,1.12.42,1.74.43.94.02,1.82-.23,2.7-.51,1.23-.38,2.43-.85,3.68-1.16,2.06-.51,4.13-.72,6.21-.09.1.02.2.05.31.07.85.15,1.17-.21.93-1.04-.2-.7-.59-1.31-.96-1.93-.04-.07-.11-.05-.17-.05-.49,0-.94-.13-1.39-.3-.71-.26-1.28-.73-1.82-1.24-.02-.07-.06-.13-.13-.16h0s-.03-.08-.05-.11c-.44-.67-.87-1.34-1.11-2.11-.08-.29-.15-.58-.25-.86-.31-.81-.75-1.11-1.61-1.1-.68,0-1.29.6-1.25,1.29.04.61.05,1.23.05,1.84,0,.05,0,.1-.01.14-.01.05-.04.1-.04.15-.12,1.04-.6,1.94-1.24,2.74-1.08,1.34-2.61,1.82-4.24,2.05-.41.06-.8-.06-1.19-.13-1.8-.32-3.02-1.38-3.82-2.99-.39-.79-.53-1.64-.66-2.49-.03-.17-.07-.16-.2-.09-.47.26-.92.57-1.36.87-.13.09-.2.22-.25.36-.43,1.12-.73,2.28-.83,3.48-.16,1.94.18,3.78,1.03,5.52.55,1.12,1.3,2.11,2.24,2.95.08.07.19.13.11.28-.07.13-.14.21-.3.19-.12-.02-.25-.01-.37-.04-.9-.21-1.75-.56-2.54-1.03-.19-.11-.26-.1-.37.11-.33.66-.63,1.34-.88,2.04-.74,2.06-1.15,4.17-1.06,6.38.08,1.92.43,3.78,1.09,5.58.58,1.58,1.34,3.07,2.39,4.39.08.11.17.16.31.17.6.03,1.2.07,1.8.1.09.02.18.03.27.05-.01.21.07.3.29.32.16.01.32.08.47.15.31.15.62.21.95.1.17-.06.39-.06.51.03.12.1.21.19.38.19.06,0,.1.03.1.1,0,.08-.04.11-.12.11-.08,0-.16,0-.23-.04-.23-.13-.44-.18-.63.06-.04.06-.13.03-.2.03-.08,0-.18-.03-.25.06-.05,0-.11,0-.16,0,0-.09-.07-.14-.14-.14-.28,0-.57-.15-.82.09-.04,0-.07,0-.11,0-.21-.18-.5-.2-.71-.17-.43.05-.84-.07-1.26-.06-.52,0-1.04-.09-1.56-.13-.08,0-.18-.02-.24.07-.03,0-.07-.01-.1-.02-.04-.2-.21-.19-.35-.2-.17-.01-.23-.05-.19-.24.06-.26-.06-.43-.26-.46.12-.02.24-.04.37-.07,0-.12-.09-.19-.15-.27-.73-1.07-1.3-2.22-1.75-3.43-.63-1.71-1.02-3.47-1.18-5.29-.22-2.56.08-5.05.91-7.48.51-1.48,1.17-2.88,2.08-4.16.08-.11.07-.18.02-.3-.82-2.06-1.16-4.18-.76-6.39.08-.47.17-.93.37-1.41-.14.04-.25.1-.36.11-.52.07-.96-.5-.85-1.07.07-.33.26-.57.52-.77.57-.44,1.14-.87,1.7-1.3.21-.16.42-.34.63-.5.09-.07.1-.16.13-.25.46-1.19,1.06-2.29,1.97-3.21C8.54-.05,11.45-.15,13.47.8c.77.36,1.35.94,1.9,1.56.15.17.29.23.52.27.34.05.48-.07.65-.33C17.63.66,19.17-.12,21.13.01c1.18.08,2.22.53,3.09,1.35.01.01.03.02.04.04.24.52.68.54,1.18.53.83-.03,1.65.08,2.48.19.38.05.63.27.74.63.12.4.22.8-.03,1.19-.06.1-.02.21,0,.31.12.88.28,1.76.13,2.66-.21,1.26-.84,2.25-2,2.84-.16.08-.15.13-.06.26.96,1.43,1.35,3,1.05,4.7-.25,1.44-.92,2.68-1.81,3.83-.69.88-1.48,1.65-2.37,2.32-.12.09-.17.24-.34.3,1.24.85,2.26,1.88,3.19,3,0,.14.02.27.21.26,0,0,0,0,0,0,.02.02.03.04.05.06,0,0,0,0,0,0,0,.2-.04.42.28.36.01.02.03.03.04.05.02.02.03.04.05.06,0,0,0,0,0,0,.05.21.08.43.34.49v.02c0,.11.04.18.16.19,0,0,.01.02.01.02-.02.16.06.24.21.29.02,0,.03.02.02.04,0,.08.03.14.11.17,0,0,0,0,0,0,.03.18.05.36.27.42h0c.06.16-.05.42.26.43,0,0,0,0,0,0-.01.14.01.28-.04.42-.03.08-.02.19.07.2.28.05.31.3.44.48.11.16.12.4.33.5,0,0,0,0,0,0-.04.25.06.46.18.68.28.54.29,1.17.5,1.74.12.33.08.69.21,1.02ZM27.41,35.43s.04-.03.06-.05c.48-.36.79-.85,1.05-1.38,0-.04.02-.08-.04-.1,0-.03,0-.07,0-.1.03-.02.06-.03.08-.06.17-.25.12-.55.21-.82.02.02.05.1.05.05.02-.26.02-.52,0-.78,0-.06-.03.03-.05.05-.05-.31-.09-.61-.14-.92-.28-1.5-.94-2.83-1.72-4.12-.52-.87-1.14-1.67-1.81-2.43-.87-.99-1.79-1.94-2.92-2.64-.07-.05-.14-.15-.26-.09.02.13.1.22.18.31.01.07.03.14.11.16h0c.21.44.41.89.62,1.33.21.43.42.87.58,1.33.06.17.07.36.2.51.18.76.39,1.52.49,2.3.02.16.1.23.23.31,1.06.65,1.77,1.6,2.2,2.75.16.43.1.56-.25.84-.05,0-.11,0-.16.01-.35-.25-.73-.38-1.16-.39-.09-.03-.18-.07-.28-.08-.48-.07-.94,0-1.31.33-.56.5-.89,1.17-1.32,1.77-.24.32-.47.66-.73.97-.12.14-.1.22.05.29.08.22.46.4.69.32.06,0,.11.01.16.06.15.25.39.27.64.26.02,0,.03,0,.05.01.02.01.04.03.06.04h0c0,.11.09.14.17.16.43.07.84.2,1.26.31.1.03.25.09.31-.1.04,0,.07,0,.11.01.14.13.78.15,1,.03.12-.05.25-.04.37-.04.08.21.18.26.4.12.19-.13.38-.28.61-.35.09-.03.2-.07.2-.21,0,0,0,0,0,0ZM13.92,30.51c.87-.46,1.73-.96,2.65-1.34.23-.1.47-.19.72-.29-1.15-.18-2.48.19-3.4,1.6-.01.02-.06.04-.02.07,0,0,.03-.02.05-.04ZM27.52,4.66c.06-1.06-.16-1.34-1.09-1.41h-.92c-.47-.09-.94,0-1.41,0-.21.02-.42.03-.63.05-.09,0-.22-.01-.26.09-.03.08.08.12.12.19.05.06.08.13.14.19.68.74,1.34,1.49,1.99,2.26.54.64,1.11,1.26,1.62,1.95.13-.2.29-.37.34-.6.22-.43.22-.9.25-1.37,0-.45.02-.91-.16-1.34ZM22.03,2.18c.34-.05.69-.09,1.06-.14-1.47-1.17-3.33-1.06-4.87.31-.1.08-.2.16-.24.29.66-.06,1.3-.15,1.9.18.06.04.11.03.17,0,.62-.32,1.3-.49,1.98-.64ZM7.76,2.8c-.08-.04-.11.04-.15.07-.41.3-.68.71-.95,1.17.47-.15.88-.33,1.31-.48.74-.26,1.51-.4,2.28-.54.67-.12,1.35-.21,2.03-.32.52-.02,1.04-.05,1.58-.07-.02-.09-.07-.12-.12-.16-1.67-1.26-4.38-1.15-5.94.23-.03.02-.09.04-.04.1h0ZM15.67,8.91c.11-.21.24-.4.32-.63.47-1.3.4-2.6.09-3.92-.04-.19-.17-.29-.34-.32-.18-.04-.37-.05-.55-.06-.73-.03-1.46.03-2.19.07-.44.02-.89.05-1.33.15-.53.05-1.05.18-1.62.3.73.71,1.31,1.48,1.95,2.21.89,1,1.75,2.02,2.62,3.04.15.17.24.17.39.02.25-.26.47-.55.66-.85Z"/>
      <path class="cls-4" d="M19.89,34.14c0,.22-.05.4-.28.47-.06.02-.14.06-.12.12.08.23-.11.22-.23.3-.13.08-.3.12-.36.29-.03.09-.12.08-.2.09-.2.03-.24.13-.11.27.08.09.13.18.13.31,0,.06.02.13.1.14.08,0,.1-.06.11-.12q.09-.38.48-.38c.17,0,.33,0,.49-.08.14-.07.24-.01.26.15-.19.18-.38.38-.58.54-.92.74-1.89,1.38-2.97,1.87-.06.03-.14.02-.16.11,1.15.03,2.3-.02,3.45-.06.98-.04,1.96-.1,2.93-.15.16,0,.24-.05.26-.22.03-.23.09-.45.13-.67.15.13.27.29.43.42.15.13.04.35-.16.37-.16.01-.22.08-.21.23,0,.16.08.24.24.25.09,0,.18,0,.26,0,.25.02.36-.09.34-.34,0,0,0-.02,0-.03,0-.63.13-.72.73-.59.09.02.15.05.17.14.02.1.11.13.19.17-.06.18.09.11.15.11.43,0,.86.01,1.3.01.57,0,1.15.04,1.72.1.11.01.23.03.34.07.14.05.31.08.31.27,0,.18-.16.22-.29.26-.45.13-.91.2-1.38.24-5.63.53-11.28.59-16.92.47-.59-.01-1.18,0-1.77-.09.07-.08.16-.05.25-.06.07,0,.16.02.2-.03.19-.25.4-.2.63-.06.07.04.15.05.23.04.07,0,.12-.03.12-.11,0-.07-.04-.1-.1-.1-.16,0-.26-.09-.38-.19-.12-.1-.33-.09-.51-.03-.33.11-.64.05-.95-.1-.15-.07-.31-.14-.47-.15-.22-.02-.3-.11-.29-.32.67.02,1.34.05,2.02.07-.01.12,0,.25.14.26.1,0,.13-.11.1-.2-.08-.25.09-.27.25-.29.19-.03.3.07.3.27,0,.11,0,.23,0,.34,0,.12-.01.23.17.23.16,0,.15-.11.15-.22,0-.26,0-.51,0-.77,0-.17,0-.31.22-.35.1-.02.16-.11.15-.22.06.02.12.04.17.06.65.25,1.32.41,2.02.36,1.55-.1,2.93-.68,4.22-1.52.91-.6,1.78-1.24,2.59-1.96ZM18.35,35.69s-.05-.05-.07-.05c-.02,0-.04.02-.06.04.02.02.03.04.05.05.02,0,.04-.02.08-.04Z"/>
      <path class="cls-4" d="M28.91,36.03c.14-.24.05-.61.43-.72.15-.05.05-.16-.03-.21-.11-.07-.18-.14-.13-.28.05-.13.16-.18.3-.17.21,0,.35-.02.29-.29-.02-.1.14-.16.13-.28,0-.07.04-.18-.06-.21-.11-.03-.14.08-.18.15-.04.07.03.15,0,.25-.17-.19-.16-.38-.02-.53.32-.35.39-.76.3-1.2-.04-.18,0-.29.19-.33.13.34.07.69.04,1.03-.09,1.08-.49,2.02-1.26,2.8Z"/>
      <path class="cls-4" d="M25.23,37.68c0-.27.11-.37.35-.42.14-.03.27-.08.4-.16.17-.1.42-.2.65-.17.33.04.62.07.94-.16.35-.25.78-.37,1.08-.71.07-.08.16-.06.25-.05-.24.41-.62.63-1.02.83-.64.32-1.32.48-2.03.48-.3,0-.5.07-.62.34Z"/>
      <path class="cls-4" d="M3.68,38.79c.06-.1.15-.08.24-.07.52.05,1.04.14,1.56.13.42,0,.83.12,1.26.06.21-.03.51-.01.71.17-1.26-.04-2.52-.15-3.77-.29Z"/>
      <path class="cls-4" d="M30.11,32.05c-.13-.33-.08-.69-.21-1.02-.21-.57-.22-1.2-.5-1.74-.12-.23-.22-.43-.18-.68.33.57.48,1.21.64,1.84.13.53.29,1.05.25,1.6Z"/>
      <path class="cls-4" d="M29.23,28.6c-.21-.1-.22-.34-.33-.5-.12-.18-.16-.43-.44-.48-.09-.01-.1-.12-.07-.2.05-.14.03-.28.04-.42.29.52.57,1.04.8,1.59Z"/>
      <path class="cls-4" d="M7.56,39.09c.25-.24.54-.1.82-.09.07,0,.13.05.14.14-.32,0-.64,0-.95-.05Z"/>
      <path class="cls-4" d="M27.39,25.44c-.27-.05-.3-.28-.34-.49.16.13.24.32.34.49Z"/>
      <path class="cls-4" d="M26.96,24.84c-.32.05-.28-.17-.28-.36.11.11.21.22.28.36Z"/>
      <path class="cls-4" d="M28.43,27.01c-.31,0-.21-.27-.26-.43.11.13.2.27.26.43Z"/>
      <path class="cls-4" d="M28.17,26.59c-.22-.06-.24-.24-.27-.42.11.13.21.27.27.42Z"/>
      <path class="cls-4" d="M26.63,24.42c-.19.01-.21-.12-.21-.26.09.07.17.16.21.26Z"/>
      <path class="cls-4" d="M27.77,25.96c-.14-.04-.22-.13-.21-.29.07.1.14.19.21.29Z"/>
      <path class="cls-4" d="M27.55,25.65c-.12,0-.15-.09-.15-.19.05.06.1.13.15.19Z"/>
      <path class="cls-4" d="M27.9,26.16c-.08-.02-.11-.08-.11-.17.06.04.09.1.11.17Z"/>
      <path class="cls-4" d="M26.67,24.47s-.03-.04-.05-.06c.02.02.03.04.05.06Z"/>
      <path class="cls-4" d="M27.05,24.95s-.03-.04-.05-.06c.02.02.03.04.05.06Z"/>
      <path class="cls-5" d="M12.49,31.14c-.01.16-.05.33-.04.49.01.46.28.66.73.56.07-.02.13-.06.2-.04-.07.31-.43.32-.6.57.29-.04.57-.06.84-.13.93-.23,1.8-.65,2.68-1.02,1.25-.53,2.49-1.07,3.76-1.54.38-.14.77-.24,1.15-.38,1.33-.51,2.25-.37,3.23.46.14.12.34.2.39.42-.3,0-.59-.08-.89-.04-.56.08-1.03.35-1.45.72-.11-.1-.18-.15-.33-.01-.33.29-.65.59-.98.87-.85.72-1.77,1.37-2.69,1.99-1.21.82-2.53,1.42-3.97,1.74-1.33.3-2.59.12-3.75-.63-1.07-.69-1.87-1.66-2.63-2.65-.74-.97-1.38-2.01-1.96-3.09-.84-1.57-1.54-3.18-1.94-4.92-.27-1.18-.44-2.37-.07-3.57.18-.58.57-.87,1.16-.79.16.02.31.07.46.12,1.02.28,1.98.73,2.96,1.11.13.05.25.17.41.1.09.22.27.37.4.57.1.16.23.33.44.39.07.18.15.35.22.53.16.42.32.85.48,1.27-.09,0-.14-.07-.2-.12-.34-.22-.66-.47-1.04-.61-.44-.16-.74.08-.68.54-.46-.19-.84-.52-1.29-.72-.06-.11-.17-.14-.28-.15-.01-.04,0-.09-.06-.08,0,0-.02.01-.02.02,0,.06.04.06.08.06,0,.13.1.18.2.22.29.3.59.58.85.9.91,1.1,1.75,2.25,2.46,3.49.38.67.8,1.32,1.13,2.03.21.45.44.9.66,1.35Z"/>
      <path class="cls-11" d="M9.15,21.46c-.16.07-.28-.05-.41-.1-.98-.38-1.94-.82-2.96-1.11-.15-.04-.3-.1-.46-.12-.59-.08-.98.21-1.16.79-.37,1.2-.2,2.39.07,3.57.4,1.74,1.1,3.35,1.94,4.92.58,1.08,1.22,2.12,1.96,3.09.76.99,1.56,1.96,2.63,2.65,1.16.75,2.42.92,3.75.63,1.44-.32,2.76-.92,3.97-1.74.92-.63,1.84-1.27,2.69-1.99.33-.28.66-.58.98-.87.15-.13.23-.09.33.01-.76.89-1.52,1.78-2.35,2.6-.09.09-.17.2-.25.3-.81.72-1.68,1.36-2.59,1.96-1.29.85-2.67,1.42-4.22,1.52-.69.04-1.37-.11-2.02-.36-.06-.02-.12-.04-.17-.06-.03-.01-.07-.03-.1-.04-.49-.22-.91-.54-1.38-.8-.02-.11-.14-.1-.21-.15,0-.05-.02-.11-.09-.12h0c-.13-.13-.26-.24-.39-.35-.01-.06-.04-.1-.1-.12-.04-.06-.08-.13-.17-.15-.45-.52-.94-.99-1.33-1.55-.46-.66-.97-1.29-1.39-1.99-.37-.62-.72-1.24-1.07-1.87-.1-.23-.18-.48-.3-.7-.63-1.23-1.09-2.54-1.5-3.85-.12-.38-.2-.77-.3-1.16-.05.16-.08.32-.09.47-.04.91,0,1.81.17,2.71.15.77.35,1.52.57,2.26-.01.05,0,.09.04.12,0,.01.01.03.01.04,0,.07,0,.14.01.21.03.35.2.65.3.97.19.63.39,1.25.64,1.86.31.74.64,1.48,1.05,2.17.51.86,1,1.73,1.63,2.51.08.1.21.2.21.35-.6-.03-1.2-.07-1.8-.1-.14,0-.22-.06-.31-.17-1.05-1.33-1.81-2.81-2.39-4.39-.66-1.8-1.01-3.66-1.09-5.58-.09-2.21.32-4.31,1.06-6.38.25-.7.55-1.37.88-2.04.1-.2.18-.22.37-.11.79.47,1.64.82,2.54,1.03.12.03.25.02.37.04.16.02.24-.06.3-.19.08-.15-.03-.21-.11-.28-.95-.83-1.69-1.82-2.24-2.95-.85-1.74-1.19-3.58-1.03-5.52.1-1.21.39-2.36.83-3.48.05-.14.12-.27.25-.36.44-.3.89-.61,1.36-.87.12-.07.17-.07.2.09.13.85.27,1.7.66,2.49.8,1.61,2.02,2.67,3.82,2.99.39.07.79.19,1.19.13,1.63-.23,3.17-.71,4.24-2.05.64-.79,1.12-1.69,1.24-2.74,0-.05.03-.1.04-.15.09.18.03.36,0,.54-.11.87-.45,1.65-.96,2.35-.46.62-1.04,1.13-1.71,1.52-.75.44-1.52.84-2.4.97-.74.11-1.47.14-2.21.03-.58-.09-1.17-.21-1.7-.48-.61-.31-1.22-.63-1.73-1.11-.39-.36-.81-.7-1.1-1.16-.12-.2-.29-.37-.44-.56-.1.09-.15.19-.2.3-.19.44-.24.9-.26,1.36-.03.71.03,1.4.15,2.1.22,1.29.71,2.48,1.3,3.64.39.76.94,1.4,1.46,2.07.22.28.47.55.78.74.07.25.15.49.22.74.11.35.25.68.43,1Z"/>
      <path class="cls-8" d="M10.31,15.66c.86.47,1.79.48,2.73.42,1.4-.1,2.72-.58,4.04-1,.59-.19,1.18-.35,1.76-.55,1.3-.44,2.64-.56,4-.55.6,0,1.19.12,1.78.22.77.12,1.07.07,1.75-.33-.02.33-.07.62-.15.91-.39,1.46-1.22,2.66-2.26,3.73-.34.35-.65.73-1.05,1.02-.02.01-.04.03-.05.04-.07.06-.13.11-.2.17-.08-.02-.14.01-.2.06-.83.61-1.81.9-2.75,1.26-.8.3-1.65.4-2.51.45-.86.05-1.72.07-2.58-.05-.76-.11-1.49-.3-2.2-.58-.91-.36-1.77-.82-2.57-1.38-.48-.33-.81-.81-1.24-1.18-.04-.06-.04-.12-.03-.2.04-.3.16-.58.28-.84.32-.68.74-1.27,1.43-1.62Z"/>
      <path class="cls-2" d="M10.31,15.66c-.69.35-1.12.94-1.43,1.62-.13.27-.24.55-.28.84-.01.07-.01.14.03.2-.05.03-.06.08-.07.13-.1.41-.01.84-.06,1.26-.31-.19-.56-.46-.78-.74-.52-.66-1.07-1.31-1.46-2.07-.59-1.16-1.08-2.35-1.3-3.64-.12-.7-.18-1.4-.15-2.1.02-.47.07-.93.26-1.36.05-.11.1-.21.2-.3.15.19.32.36.44.56.29.46.71.8,1.1,1.16.51.47,1.12.8,1.73,1.11.53.27,1.11.39,1.7.48.73.11,1.47.08,2.21-.03.88-.13,1.65-.52,2.4-.97.67-.39,1.25-.9,1.71-1.52.51-.69.85-1.48.96-2.35.02-.18.09-.36,0-.54,0-.05,0-.1.01-.14.1-.32.04-.65.04-.97,0-.17.05-.25.22-.28.74-.12,1.47-.1,2.21-.05.2.01.4.03.59.13.24.77.67,1.45,1.11,2.11.02.03.03.08.05.12-.13.03-.2-.11-.31-.11,0,0-.01,0-.02-.01,0,0,.01,0,.02.01.28.51.73.88,1.15,1.25.57.5,1.2.91,1.82,1.35.2.14.38.32.53.51.4.53.46,1.08.05,1.64-2.08-.62-4.15-.42-6.21.09-1.25.31-2.45.77-3.68,1.16-.88.28-1.76.52-2.7.51-.61-.01-1.2-.12-1.74-.43-.22-.13-.37-.32-.55-.49-.2-.19-.44-.26-.7-.14-.26.12-.33.35-.33.61,0,.28.11.51.3.71.27.29.6.48.94.68ZM22.63,10.52c.16-.24.13-.42-.08-.55-.23-.14-.58-.11-.69.09-.07.13-.12.28.05.39.1.18.51.31.67.21.06-.03.06-.08.04-.13ZM20.31,10.53c.07-.06.1-.13.05-.21-.11-.18-.27-.3-.49-.25-.22.05-.4.17-.48.39-.07.2.04.33.22.42.2.17.61-.03.71-.35Z"/>
      <path class="cls-8" d="M20.68,22.26c.55.99,1.06,2,1.43,3.08.24.7.48,1.4.62,2.13.06.31.05.3-.26.26-1.24-.18-2.42.02-3.57.47-.18.07-.32.07-.51,0-1.35-.55-2.7-.66-4.01.13-.09.05-.17.12-.25.19-.13.03-.19.17-.33.19-.3-.65-.59-1.29-.97-1.88-.31-.5-.66-.97-1.05-1.42.01-.02.03-.05.03-.07.06-.59.37-1.04.83-1.41.06-.04.1-.1.1-.18.06.01.12.02.18.03,1.12.28,2.26.33,3.4.21,1.36-.14,2.6-.64,3.75-1.38.19-.12.35-.33.61-.34Z"/>
      <path class="cls-3" d="M20.68,22.26c-.26.01-.41.22-.61.34-1.15.74-2.38,1.25-3.75,1.38-1.14.12-2.28.07-3.4-.21-.06-.01-.12-.02-.18-.03-.14-.06-.28-.11-.41-.17-.38-.16-.78-.26-1.13-.48-.4-.26-.81-.52-1.21-.78-.04-.32-.31-.51-.42-.8-.02-.04-.08-.08-.12-.09-.24-.06-.31-.26-.42-.45-.1-.17-.09-.41-.31-.51-.07-.25-.15-.49-.22-.74.05-.42-.05-.84.06-1.26.01-.05.01-.1.07-.13.43.37.76.85,1.24,1.18.81.56,1.66,1.02,2.57,1.38.72.28,1.45.48,2.2.58.86.12,1.72.1,2.58.05.86-.05,1.71-.15,2.51-.45.94-.36,1.92-.65,2.75-1.26.06-.04.12-.07.2-.06-.1.16-.26.26-.4.37-.58.47-1.17.95-1.85,1.29-.16.08-.16.15-.07.28.12.18.23.37.34.56Z"/>
      <path class="cls-5" d="M26.13,31.9c.05,0,.11,0,.16-.01.32-.04.51-.36.47-.72-.09-.67-.32-1.3-.66-1.88-.6-1.01-1.18-2.04-1.91-2.97-.17-.22-.3-.5-.58-.63-.12-.15-.14-.33-.2-.51-.15-.46-.36-.89-.58-1.33-.21-.44-.41-.89-.62-1.33.14-.01.19.11.26.19.17.19.32.4.5.57.48.48.91,1.01,1.32,1.54.75.97,1.43,1.98,2.04,3.04.34.61.68,1.21.93,1.86.25.65.51,1.29.57,2-.07.09-.09.16.04.21.03.25.1.49.05.74-.26.12-.1.32-.08.48,0,.03,0,.07-.01.1-.06,0-.11.03-.08.1.02.06.06.03.11.01.25-.07.37-.27.47-.48.04-.08.06-.17.18-.15.13.02.13.12.13.22,0,.19,0,.38-.15.54-.09.09-.1.2,0,.3,0,.03,0,.07,0,.1-.06.01-.14.02-.06.11-.08.14-.2.24-.33.33-.44.3-.95.37-1.45.41-.71.06-1.42-.03-2.12-.17-.59-.12-1.17-.3-1.73-.54-.19-.08-.28-.19-.14-.4.23-.34.42-.71.67-1.04.17-.23.29-.53.62-.61.81-.12,1.59.1,2.4.21-.05-.14-.18-.18-.2-.3Z"/>
      <path class="cls-9" d="M11.68,4.2c.44-.1.89-.13,1.33-.15.73-.04,1.46-.1,2.19-.07.18,0,.37.02.55.06.17.04.3.13.34.32.31,1.31.37,2.62-.09,3.92-.08.22-.21.42-.32.63,0-.06-.02-.1-.06-.14-.29-.31-.56-.63-.82-.95-.65-.79-1.35-1.52-1.99-2.32-.36-.45-.75-.87-1.12-1.3Z"/>
      <path class="cls-10" d="M11.79,25.39c.38.45.73.92,1.05,1.42.37.6.66,1.24.97,1.88.13-.02.2-.16.33-.19.11.04.23,0,.34.08.08.06.15,0,.19-.09.04-.08.09-.15.17-.2.05-.03.1-.08.16-.04.05.04.03.09,0,.15,0,.02-.02.05-.02.08.07.39-.09.61-.48.67-.19.03-.24.15-.22.32,0,.09.03.21-.07.26-.14.07-.12-.09-.18-.13-.13-.08-.26,0-.37.03-.12.04-.14.17-.11.29.02.07.08.17,0,.22-.08.05-.12-.08-.19-.1-.34-.13-.36-.37-.27-.67.01-.04.02-.11-.02-.12-.17-.01-.22-.16-.32-.25-.08-.07-.1,0-.12.07-.4-.68-.75-1.39-1.2-2.04-.72-1.04-1.51-2.03-2.5-2.84-.07-.06-.12-.13-.18-.19-.06-.46.24-.7.68-.54.38.14.71.39,1.04.61.06.04.11.11.2.12,0,0,0,0,0,0,0,.04.03.05.06.05.38.34.73.72,1.04,1.13Z"/>
      <path class="cls-8" d="M11.68,4.2c.37.43.76.85,1.12,1.3.64.8,1.34,1.53,1.99,2.32.27.33.53.65.82.95.04.04.06.08.06.14-.19.31-.41.59-.66.85-.15.15-.24.16-.39-.02-.86-1.02-1.73-2.04-2.62-3.04-.64-.72-1.22-1.5-1.95-2.21.57-.12,1.09-.25,1.62-.3Z"/>
      <path class="cls-3" d="M23.23,37.08c-.05.22-.11.45-.13.67-.02.17-.1.21-.26.22-.98.05-1.96.11-2.93.15-1.15.04-2.29.09-3.45.06.02-.09.1-.08.16-.11,1.08-.48,2.05-1.13,2.97-1.87.21-.17.39-.36.58-.54.07-.05.13-.01.19.03.84.53,1.73.93,2.69,1.17.12.03.19.08.18.21Z"/>
      <path class="cls-13" d="M27.84,33.27s0-.07.01-.1c.07-.15.1-.31.08-.48.05-.25-.02-.49-.05-.74.01-.07.02-.15-.04-.21-.06-.7-.32-1.35-.57-2-.25-.65-.59-1.26-.93-1.86-.61-1.07-1.29-2.08-2.04-3.04-.41-.53-.84-1.06-1.32-1.54-.18-.18-.33-.39-.5-.57-.07-.08-.12-.21-.26-.19,0,0,0,0,0,0,.02-.09-.04-.14-.11-.16-.08-.09-.16-.18-.18-.31.12-.06.18.04.26.09,1.14.7,2.05,1.65,2.92,2.64.67.76,1.29,1.56,1.81,2.43.77,1.29,1.44,2.62,1.72,4.12-.02.18-.03.37-.06.55-.11.54-.32,1.03-.75,1.41Z"/>
      <path class="cls-13" d="M24.83,30.52c-.04-.22-.24-.3-.39-.42-.98-.82-1.9-.97-3.23-.46-.38.15-.77.25-1.15.38-1.27.47-2.51,1.01-3.76,1.54-.88.37-1.74.79-2.68,1.02-.27.07-.55.09-.84.13.16-.24.53-.25.6-.57,0,0,0,0,0,0,.11.04.17-.02.22-.1,1.11-.81,2.39-1.3,3.62-1.86.43-.19.87-.33,1.3-.52.94-.41,1.92-.68,2.94-.78.85-.09,1.7-.01,2.45.45.43.27.78.64,1.08,1.06.03.04.08.09.03.14-.06.06-.13,0-.19-.02Z"/>
      <path class="cls-11" d="M23.93,31.99c-.33.08-.45.38-.62.61-.24.33-.44.7-.67,1.04-.14.21-.05.32.14.4.56.24,1.14.42,1.73.54.7.14,1.41.22,2.12.17.51-.04,1.01-.11,1.45-.41.13-.09.25-.19.33-.33.03,0,.06,0,.1,0-.26.53-.57,1.02-1.05,1.38-.02.02-.04.03-.06.05,0,0,0,0,0,0-.38.22-.79.35-1.21.43-.13,0-.25,0-.37.04-.33-.01-.67-.02-1-.03-.04,0-.07,0-.11-.01-.25-.05-.5-.1-.75-.16-.33-.09-.66-.18-1-.22,0,0,0,0,0,0-.02-.01-.04-.03-.06-.04-.02,0-.03-.01-.05-.01-.19-.15-.44-.14-.64-.26-.04-.05-.1-.05-.16-.06-.13-.06-.25-.13-.38-.19.08-.11.15-.23.27-.31.21-.14.24-.42.44-.57.09-.07.08-.08-.33-.5.43-.6.76-1.27,1.32-1.77.38-.34.83-.4,1.31-.33.09.01.18.05.28.08-.43-.01-.8.09-1.04.48Z"/>
      <path class="cls-13" d="M8.76,24.02c.06.06.11.14.18.19.99.81,1.78,1.8,2.5,2.84.45.65.8,1.36,1.2,2.04.09.2.16.41.26.61.06.13.07.24,0,.36-.19.34-.28.71-.41,1.07-.22-.45-.45-.89-.66-1.35-.33-.71-.74-1.36-1.13-2.03-.71-1.24-1.55-2.39-2.46-3.49-.26-.32-.57-.6-.85-.9.03-.02.05-.05.08-.07.45.2.83.53,1.29.72Z"/>
      <path class="cls-12" d="M7.13,37.99c0-.16-.13-.25-.21-.35-.63-.78-1.12-1.65-1.63-2.51-.41-.69-.74-1.43-1.05-2.17-.25-.6-.45-1.23-.64-1.86-.1-.32-.27-.63-.3-.97,0-.07,0-.14-.01-.21.12.27.24.54.36.81.18.5.44.97.68,1.45.3.62.73,1.16,1.08,1.74.36.59.79,1.12,1.24,1.63.17.21.35.42.52.64.24.37.6.61.92.9.3.3.63.55,1,.75.07.13.28.11.33.27-.67-.02-1.34-.05-2.02-.07-.09-.01-.18-.03-.27-.04Z"/>
      <path class="cls-13" d="M27.68,6c-.03.47-.03.94-.25,1.37-.46-.7-1.01-1.33-1.54-1.98-.58-.73-1.19-1.43-1.79-2.14.47,0,.94-.09,1.41,0,.17.22.33.45.51.66.56.69,1.17,1.35,1.66,2.1Z"/>
      <path class="cls-13" d="M21.43,8.22c.12,0,.18.14.31.11,0,0,0,0,0,0,0,.1.05.14.13.16.54.51,1.11.98,1.82,1.24.45.16.9.3,1.39.3.06,0,.13-.02.17.05.37.62.76,1.22.96,1.93.24.83-.07,1.19-.93,1.04-.1-.02-.21-.05-.31-.07.41-.56.35-1.11-.05-1.64-.15-.2-.33-.37-.53-.51-.62-.44-1.25-.85-1.82-1.35-.43-.37-.88-.74-1.15-1.25h0Z"/>
      <path class="cls-11" d="M20.58,6.1c-.18-.1-.39-.12-.59-.13-.74-.05-1.48-.07-2.21.05-.17.03-.22.11-.22.28,0,.32.06.65-.04.97,0-.61-.01-1.23-.05-1.84-.04-.69.57-1.28,1.25-1.29.86,0,1.3.3,1.61,1.1.11.28.18.57.25.86Z"/>
      <path class="cls-6" d="M24.1,3.25c.6.71,1.21,1.42,1.79,2.14.52.65,1.07,1.28,1.54,1.98-.05.23-.21.4-.34.6-.51-.69-1.08-1.31-1.62-1.95-.65-.76-1.31-1.52-1.99-2.26-.05-.06-.09-.13-.14-.19-.04-.06-.16-.11-.12-.19.04-.1.16-.08.26-.09.21-.02.42-.03.63-.05Z"/>
      <path class="cls-14" d="M12.28,2.71c-.68.11-1.36.2-2.03.32-.77.14-1.54.28-2.28.54-.43.15-.84.33-1.31.48.27-.47.54-.87.95-1.17.1.08.13,0,.15-.07,0,0,0,0,0,0,.09.02.15-.04.22-.07,1.23-.66,2.51-.75,3.83-.29.17.06.36.11.47.27Z"/>
      <path class="cls-11" d="M23.62,25.68c.28.13.4.41.58.63.72.93,1.31,1.95,1.91,2.97.34.57.57,1.2.66,1.88.05.36-.15.68-.47.72.35-.27.41-.4.25-.84-.44-1.15-1.14-2.1-2.2-2.75-.13-.08-.21-.15-.23-.31-.1-.78-.31-1.53-.49-2.3Z"/>
      <path class="cls-13" d="M12.28,2.71c-.12-.16-.3-.21-.47-.27-1.32-.46-2.6-.37-3.83.29-.07.04-.13.09-.22.07-.04-.06.02-.07.04-.1,1.56-1.38,4.27-1.49,5.94-.23.05.04.1.07.12.16-.53.02-1.06.05-1.58.07Z"/>
      <path class="cls-14" d="M22.03,2.18c-.68.15-1.35.32-1.98.64-.06.03-.11.04-.17,0-.6-.33-1.25-.24-1.9-.18.04-.13.14-.21.24-.29.06.07.11.01.16-.02.79-.52,1.66-.71,2.59-.57.38.06.76.15,1.06.41Z"/>
      <path class="cls-9" d="M27.68,6c-.49-.75-1.1-1.4-1.66-2.1-.17-.22-.34-.44-.51-.66.31,0,.62,0,.92.01.27.14.46.37.62.63.16.26.31.52.47.78.18.43.16.89.16,1.34Z"/>
      <path class="cls-13" d="M22.03,2.18c-.31-.27-.68-.36-1.06-.41-.94-.14-1.8.06-2.59.57-.05.03-.1.09-.16.02,1.55-1.37,3.4-1.48,4.87-.31-.37.05-.71.09-1.06.14Z"/>
      <path class="cls-14" d="M13.88,30.48c.92-1.41,2.25-1.78,3.4-1.6-.26.1-.49.2-.72.29-.92.38-1.77.88-2.65,1.34,0-.01-.02-.02-.03-.03Z"/>
      <path class="cls-13" d="M23.93,31.99c.24-.39.62-.49,1.04-.48.43,0,.81.14,1.16.39.02.12.15.16.2.3-.81-.11-1.59-.33-2.4-.21Z"/>
      <path class="cls-7" d="M22.07,33.53c.41.43.42.43.33.5-.19.16-.23.43-.44.57-.12.08-.19.2-.27.31-.1-.04-.2-.09-.31-.13-.15-.08-.17-.15-.05-.29.26-.31.49-.64.73-.97Z"/>
      <path class="cls-14" d="M27.84,33.27c.43-.38.64-.87.75-1.41.03-.18.04-.36.06-.55.05.31.09.61.14.92,0,.23,0,.46,0,.69-.09.27-.05.57-.21.82-.02.03-.05.04-.08.06-.11-.1-.09-.21,0-.3.16-.16.15-.34.15-.54,0-.1,0-.2-.13-.22-.12-.02-.14.07-.18.15-.1.22-.22.41-.47.48-.04.01-.09.05-.11-.01-.03-.07.02-.09.08-.1Z"/>
      <path class="cls-1" d="M27.52,4.66c-.16-.26-.32-.52-.47-.78-.15-.26-.34-.49-.62-.63.93.07,1.15.35,1.09,1.41Z"/>
      <path class="cls-4" d="M22.98,35.48c.34.04.67.13,1,.22.25.06.5.11.75.16-.05.18-.21.12-.31.1-.42-.11-.83-.24-1.26-.31-.09-.01-.18-.04-.17-.16Z"/>
      <path class="cls-4" d="M26.2,35.86c.43-.08.83-.22,1.21-.43,0,.13-.12.18-.2.21-.23.07-.42.22-.61.35-.21.14-.31.08-.4-.12Z"/>
      <path class="cls-4" d="M24.82,35.87c.33.01.67.02,1,.03-.22.12-.87.1-1-.03Z"/>
      <path class="cls-4" d="M21.39,34.78c.1.04.2.09.31.13.13.06.25.13.38.19-.23.07-.61-.11-.69-.32Z"/>
      <path class="cls-4" d="M22.23,35.17c.2.12.45.11.64.26-.25,0-.5-.01-.64-.26Z"/>
      <path class="cls-4" d="M28.78,32.92c0-.23,0-.46,0-.69.02-.02.05-.11.05-.05.02.26.02.52,0,.78,0,.06-.03-.03-.05-.05Z"/>
      <path class="cls-14" d="M28.52,34s-.06,0-.1,0c-.08-.09,0-.1.06-.11.05.02.05.06.04.1Z"/>
      <path class="cls-5" d="M13.6,32.05c-.05.08-.11.14-.22.1.05-.08.14-.09.22-.1Z"/>
      <path class="cls-13" d="M7.76,2.8c-.02.08-.05.16-.15.07.05-.03.07-.11.15-.07Z"/>
      <path class="cls-2" d="M21.88,8.48c-.09-.01-.14-.06-.13-.16.08.03.11.09.13.16Z"/>
      <path class="cls-5" d="M22.11,22.35c.08.03.13.07.11.16-.08-.03-.1-.09-.11-.16Z"/>
      <path class="cls-14" d="M13.92,30.51s-.04.04-.05.04c-.05-.03,0-.05.02-.07.01.01.02.02.03.03Z"/>
      <path class="cls-4" d="M27.41,35.43s.04-.03.06-.05c-.02.02-.04.03-.06.05Z"/>
      <path class="cls-3" d="M22.86,19.59s.04-.03.05-.04c0,.03-.02.05-.05.04Z"/>
      <path class="cls-4" d="M22.92,35.44s.04.03.06.04c-.02-.01-.04-.03-.06-.04Z"/>
      <path class="cls-15" d="M8.08,37.08c-.32-.29-.68-.53-.92-.9.19,0,.37,0,.56,0,.17,0,.33,0,.32.23,0,.06.04.12.12.11.06,0,.08-.06.09-.12,0-.15,0-.3,0-.45.01-.2-.08-.28-.27-.25-.28.04-.35-.13-.37-.35,0-.11,0-.23,0-.34,0-.09-.04-.17-.12-.18-.26-.02-.31-.23-.34-.4-.05-.31-.28-.38-.52-.41-.19-.02-.29-.08-.3-.29,0-.12-.09-.2-.21-.19-.14,0-.2.1-.21.23,0,.17-.03.34,0,.5.06.22.12.48.35.58.25.11.44.42.37.71-.45-.52-.88-1.05-1.24-1.63-.36-.58-.78-1.13-1.08-1.74-.24-.48-.49-.95-.68-1.45.2,0,.22.18.3.29.08.11.18.2.3.06.11-.12.02-.49-.13-.55-.27-.1-.21-.34-.24-.53-.02-.1.13-.16.19-.07.17.27.39.16.61.11.36.62.7,1.25,1.07,1.87.42.69.93,1.32,1.39,1.99.4.57.89,1.04,1.33,1.55.01.22.02.23.17.15.06.02.09.06.1.12-.08.14-.13.3.07.34.09.02.22.05.32,0,0,0,0,.01,0,.01-.04.09,0,.12.09.12.06.06.18.04.21.15,0,.1-.04.18-.08.27-.06.12-.06.26.04.37.08.08.18.1.27.04.24-.16.44-.08.64.07.16.12.32.16.5.05.03.01.07.03.1.04,0,.11-.06.2-.15.22-.21.04-.22.18-.22.35,0,.26,0,.51,0,.77,0,.11.01.21-.15.22-.18,0-.17-.11-.17-.23,0-.11,0-.23,0-.34,0-.2-.1-.3-.3-.27-.16.02-.33.04-.25.29.03.09,0,.21-.1.2-.14,0-.16-.14-.14-.26-.05-.17-.25-.14-.33-.27.09-.22-.01-.33-.21-.38-.16-.04-.29-.12-.36-.27-.11-.21-.26-.19-.43-.1ZM4.91,31.41c-.02-.08.04-.19-.04-.22-.1-.04-.14.07-.18.14-.06.09-.15.08-.23.09-.07.01-.11.05-.12.12,0,.05.02.09.06.11.14.05.3.05.44.01.12-.03.05-.17.07-.25ZM4.69,30.52c-.05,0-.09.05-.09.12,0,.05.03.08.08.07.07,0,.11-.05.11-.12,0-.05-.03-.08-.1-.07ZM8.83,36.38s-.02-.06-.05-.07c-.05-.02-.06.03-.05.06,0,.03.02.07.04.08.05.02.05-.03.06-.08Z"/>
      <path class="cls-15" d="M18.35,35.65s-.06.04-.08.04c-.02,0-.03-.03-.05-.05.02-.01.04-.04.06-.04.02,0,.04.02.07.05Z"/>
      <path class="cls-1" d="M11.79,25.39c-.31-.41-.66-.78-1.04-1.13,0-.03-.02-.06-.06-.05,0,0,0,0,0,0-.16-.42-.31-.85-.48-1.27-.07-.18-.15-.35-.22-.53,0-.04,0-.07,0-.11.4.26.81.52,1.21.78.35.23.75.33,1.13.48.14.06.28.11.41.17,0,.08-.05.13-.1.18-.45.36-.76.81-.83,1.41,0,.02-.02.05-.03.07Z"/>
      <path class="cls-14" d="M9.99,22.3s0,.07,0,.11c-.21-.06-.34-.23-.44-.39-.12-.19-.31-.35-.4-.57-.18-.32-.32-.65-.43-1,.21.1.21.34.31.51.11.18.19.38.42.45.05.01.11.05.12.09.11.28.38.48.42.8Z"/>
      <path class="cls-1" d="M7.47,23.3s-.05.05-.08.07c-.1-.04-.2-.09-.2-.22h0c.12,0,.22.04.28.15Z"/>
      <path class="cls-1" d="M7.19,23.15s-.08,0-.08-.06c0,0,.01-.02.02-.02.06,0,.05.05.06.08,0,0,0,0,0,0Z"/>
      <path class="cls-10" d="M4.66,30.03c-.22.05-.44.16-.61-.11-.06-.09-.2-.02-.19.07.04.19-.02.43.24.53.15.06.24.43.13.55-.12.13-.22.04-.3-.06-.09-.11-.11-.29-.3-.29-.12-.27-.24-.54-.36-.81,0-.01,0-.03-.01-.04,0-.05,0-.09-.04-.12-.23-.75-.43-1.5-.57-2.26-.17-.9-.21-1.8-.17-2.71,0-.16.03-.31.09-.47.1.39.18.78.3,1.16.42,1.32.87,2.62,1.5,3.85.12.23.2.47.3.7Z"/>
      <path class="cls-4" d="M10.79,37.12c-.18.11-.35.07-.5-.05-.2-.15-.4-.23-.64-.07-.08.05-.19.04-.27-.04-.11-.11-.1-.25-.04-.37.04-.09.09-.17.08-.27.46.26.89.58,1.38.8Z"/>
      <path class="cls-4" d="M9.11,36.04c-.11.05-.23.01-.32,0-.2-.04-.15-.2-.07-.34.13.11.26.23.39.34Z"/>
      <path class="cls-4" d="M8.62,35.58c-.15.08-.16.08-.17-.15.08.02.12.08.17.15Z"/>
      <path class="cls-4" d="M9.21,36.17c-.08,0-.13-.03-.09-.12.07.01.08.07.09.12Z"/>
      <path class="cls-12" d="M3.22,29.76s.05.07.04.12c-.05-.03-.05-.07-.04-.12Z"/>
      <path class="cls-10" d="M19.6,10.88c-.18-.08-.29-.22-.22-.42.08-.21.26-.34.48-.39.23-.05.38.07.49.25.05.08.03.15-.05.21-.12-.01-.22,0-.29.12-.09.16-.24.23-.42.22Z"/>
      <path class="cls-10" d="M21.91,10.44c-.17-.11-.12-.26-.05-.39.11-.19.46-.23.69-.09.21.13.24.31.08.55-.15.07-.28,0-.41-.07-.1-.06-.2-.11-.3,0Z"/>
      <path class="cls-1" d="M21.91,10.44c.1-.1.2-.06.3,0,.13.08.26.15.41.07.02.05.02.1-.04.13-.16.1-.57-.03-.67-.21Z"/>
      <path class="cls-1" d="M19.6,10.88c.18,0,.33-.07.42-.22.07-.13.17-.13.29-.12-.1.32-.51.52-.71.35Z"/>
      <path class="cls-13" d="M21.44,8.22s-.01,0-.02-.01c0,0,.01,0,.02.01,0,0,0,0,0,0Z"/>
      <path class="cls-14" d="M27.93,32.68c.02.17,0,.33-.08.48-.02-.17-.18-.36.08-.48Z"/>
      <path class="cls-14" d="M27.84,31.73c.06.06.05.14.04.21-.13-.05-.11-.13-.04-.21Z"/>
      <path class="cls-5" d="M10.68,24.21s.05.02.06.05c-.03,0-.06-.02-.06-.05Z"/>
      <path class="cls-10" d="M6.64,35.55c.07-.28-.12-.6-.37-.71-.23-.1-.29-.36-.35-.58-.04-.16-.01-.33,0-.5,0-.13.07-.22.21-.23.12,0,.21.07.21.19,0,.2.11.26.3.29.24.03.46.1.52.41.03.17.08.39.34.4.09,0,.12.09.12.18,0,.11,0,.23,0,.34.02.23.09.4.37.35.19-.03.28.05.27.25-.01.15,0,.3,0,.45,0,.06-.03.11-.09.12-.08.01-.12-.05-.12-.11,0-.24-.15-.24-.32-.23-.19,0-.37,0-.56,0-.17-.21-.35-.42-.52-.64Z"/>
      <path class="cls-4" d="M8.08,37.08c.17-.09.32-.12.43.1.07.15.2.23.36.27.2.05.3.16.21.38-.37-.2-.71-.45-1-.75Z"/>
      <path class="cls-10" d="M4.91,31.41c-.02.09.05.22-.07.25-.14.04-.3.04-.44-.01-.04-.02-.06-.06-.06-.11,0-.07.05-.11.12-.12.08-.01.18,0,.23-.09.04-.07.08-.18.18-.14.08.03.02.14.04.22Z"/>
      <path class="cls-10" d="M4.69,30.52c.07,0,.1.02.1.07,0,.07-.04.11-.11.12-.05,0-.08-.02-.08-.07,0-.07.04-.11.09-.12Z"/>
      <path class="cls-4" d="M8.83,36.38s-.01.1-.06.08c-.02,0-.04-.05-.04-.08,0-.03,0-.08.05-.06.02,0,.03.05.05.07Z"/>
    </g>
    <g>
      <path class="cls-15" d="M47.6,17.2c-1.11.3-2.25.46-3.41.47-1.16.01-2.32-.05-3.47-.19-.07-.01-.17-.03-.32-.06-.15-.03-.3-.06-.46-.09-.16-.04-.31-.08-.45-.11-.14-.04-.23-.08-.29-.11-.11-.08-.17-.18-.2-.32-.09-1.18-.18-2.35-.27-3.51-.09-1.16-.13-2.33-.13-3.51,0-.75,0-1.5,0-2.24,0-.74.08-1.49.25-2.22.05-.21.12-.43.19-.65.07-.22.18-.42.31-.61.16-.23.37-.41.63-.54.18-.08.49-.14.91-.2.42-.06.87-.1,1.34-.14.47-.04.92-.06,1.35-.08.43-.01.75-.01.96,0,.54.01,1.08.06,1.62.15.54.09,1.05.23,1.56.43.5.2.98.45,1.45.76.46.31.87.66,1.23,1.06.15.18.28.35.4.53.12.18.21.38.28.59.2.51.29,1.04.27,1.6-.02.55-.14,1.07-.37,1.56-.19.44-.44.81-.75,1.13-.22.23-.48.42-.77.58-.29.16-.59.31-.89.43.41.24.74.54,1,.91.26.37.42.76.5,1.18.07.42.05.84-.08,1.25-.13.41-.35.79-.68,1.13-.22.21-.49.38-.78.52s-.6.23-.9.31ZM44.29,9.86c.4.18.83.24,1.3.2.47-.04.9-.16,1.28-.35.21-.1.39-.23.55-.39.15-.16.26-.34.33-.53.07-.19.09-.38.06-.57-.03-.19-.11-.38-.26-.55-.15-.17-.34-.3-.57-.38-.24-.08-.47-.13-.69-.16-.25-.01-.52,0-.81.05-.29.04-.57.12-.83.23-.26.11-.5.25-.71.42-.21.17-.36.37-.44.59-.05.15-.07.31-.05.49.02.18.08.33.17.47.08.11.18.21.31.29.13.08.25.15.39.2ZM43.59,13.39c.01.18.08.32.2.43s.26.2.44.27c.17.07.36.11.56.13.2.02.39.03.57.03.22-.01.45-.04.68-.08.23-.04.45-.12.64-.22.12-.06.23-.14.34-.24s.18-.21.24-.34c.08-.15.09-.32.02-.51-.08-.21-.21-.38-.39-.49s-.39-.19-.62-.23c-.24-.04-.49-.06-.74-.04-.26.02-.51.06-.74.12-.29.08-.57.22-.83.42-.26.21-.38.45-.36.74Z"/>
      <path class="cls-15" d="M61.3,17.48c-.72.36-1.49.6-2.33.71-.84.11-1.66.09-2.45-.06-.9-.19-1.72-.55-2.48-1.09-.3-.21-.58-.46-.83-.74-.25-.28-.47-.58-.65-.89-.22-.34-.4-.7-.53-1.09-.13-.39-.23-.78-.31-1.18-.11-.63-.16-1.25-.16-1.88s.03-1.26.1-1.9c.15-1.44.46-2.82.95-4.15.01-.02.05-.08.1-.16.05-.08.09-.13.1-.16.07-.16.17-.31.31-.43.14-.12.29-.22.45-.28.11-.05.22-.08.34-.08.12,0,.23,0,.34,0,.07,0,.2,0,.4.02.2.01.33.03.4.04.19.03.37.05.55.08.18.03.35.08.53.16.13.06.25.14.36.24.11.1.18.22.22.36.05.15.07.31.05.48-.02.17-.05.33-.09.48-.15.6-.31,1.2-.51,1.79-.19.59-.32,1.2-.39,1.83-.03.33-.03.65,0,.98.03.33.11.63.26.92.12.23.28.43.49.61.2.18.43.32.68.4.22.07.46.13.71.16.25.03.5.03.73,0,.28-.04.55-.14.8-.31s.46-.37.6-.59c.16-.25.27-.52.35-.81.07-.29.12-.58.13-.86.03-.68-.01-1.34-.12-2.01-.11-.66-.18-1.33-.22-2.01-.01-.25.02-.5.1-.75.08-.25.21-.45.4-.6.11-.09.22-.16.34-.21.12-.05.25-.09.38-.11.32-.08.65-.12.99-.13.34-.01.67.02.99.09.19.05.36.13.53.23.17.11.3.24.39.4.32.56.52,1.18.6,1.86.07.48.12.96.17,1.44s.08.98.11,1.46c.01.36,0,.73-.03,1.1-.03.37-.07.74-.11,1.1-.09.71-.29,1.42-.58,2.11-.29.69-.67,1.32-1.14,1.89-.27.33-.57.61-.91.85-.34.24-.7.47-1.09.67Z"/>
      <path class="cls-15" d="M72.78,18.15c-.78.04-1.56,0-2.34-.11-.78-.11-1.55-.28-2.3-.51-.21-.06-.42-.13-.62-.21-.21-.07-.4-.16-.58-.26-.19-.1-.35-.22-.51-.36-.15-.14-.27-.3-.37-.49-.09-.19-.14-.43-.14-.71s.03-.58.09-.88c.06-.3.14-.59.25-.86.11-.28.22-.5.36-.68.09-.12.2-.23.34-.33.13-.09.27-.15.42-.18.18-.02.37-.02.55.02.18.04.35.09.51.17.46.21.93.42,1.41.61.48.19.96.37,1.47.52.17.05.34.09.52.13s.34.07.52.09c.2.03.38,0,.55-.1.17-.09.26-.23.29-.4.03-.12,0-.25-.11-.38-.1-.13-.21-.22-.33-.27-.16-.06-.32-.12-.48-.16-.16-.04-.32-.08-.48-.12-.57-.15-1.13-.31-1.7-.48-.56-.17-1.09-.4-1.6-.68-.32-.17-.62-.38-.9-.63-.28-.24-.5-.53-.64-.85-.2-.43-.3-.88-.31-1.37,0-.49.06-.95.21-1.39.15-.44.36-.86.64-1.27.28-.41.62-.75,1-1.02.34-.24.71-.43,1.11-.56.4-.14.8-.24,1.21-.32.65-.11,1.31-.16,1.97-.15.67.01,1.32.09,1.95.24.34.09.68.2,1.02.33.34.13.65.3.94.52.21.14.4.3.57.5.17.19.29.4.37.63.07.2.09.41.07.63-.02.22-.07.43-.15.63-.08.2-.2.41-.37.63-.17.22-.36.43-.57.62-.22.19-.45.35-.68.48-.24.13-.47.19-.69.21-.15.01-.29,0-.45-.07-.15-.06-.3-.13-.45-.22-.3-.18-.58-.38-.83-.63-.25-.24-.52-.47-.79-.68-.17-.14-.35-.26-.54-.37-.19-.11-.38-.18-.59-.23-.32-.08-.61-.06-.88.06-.27.11-.49.28-.65.51-.17.23-.26.48-.29.77-.03.29.04.57.2.84.11.18.24.32.4.44.16.12.33.22.52.29.45.2.92.35,1.41.45.49.1.97.21,1.45.34.32.08.63.17.94.27.31.11.6.25.86.42.34.24.64.52.89.84.25.33.44.68.57,1.05.33.91.27,1.81-.18,2.68-.12.25-.28.49-.49.71-.2.23-.43.41-.68.56-.42.25-.88.43-1.37.54-.49.11-.99.18-1.49.21Z"/>
      <path class="cls-15" d="M85.9,17.58c-.25.08-.55.13-.89.16-.34.03-.69.03-1.03,0-.34-.03-.66-.1-.96-.21-.3-.11-.53-.26-.7-.46-.12-.14-.21-.29-.28-.47-.09-.28-.15-.56-.18-.85-.03-.29-.05-.58-.08-.87v-.55c0-.28,0-.58,0-.89,0-.31.01-.61.02-.88,0-.28,0-.46,0-.56.03-.78.06-1.54.1-2.3.04-.76.09-1.52.14-2.28-.37-.01-.74-.02-1.1-.02s-.73-.01-1.1-.04c-.15-.01-.29-.03-.44-.06-.15-.02-.28-.07-.42-.13-.19-.1-.32-.26-.41-.47-.09-.21-.14-.43-.17-.64-.03-.17-.04-.35-.05-.52,0-.17,0-.34.03-.52,0-.3.07-.57.2-.81.07-.11.15-.21.26-.29.11-.08.22-.15.34-.22.28-.1.56-.17.86-.2.3-.03.6-.05.9-.07.12,0,.36,0,.71,0,.36,0,.73.02,1.13.03.4.01.77.03,1.13.04.36.01.59.02.71.02h2.38c.36,0,.69,0,1,0,.31,0,.59.02.84.03.25.01.43.03.54.04.16.03.32.06.48.1.16.04.3.12.44.22.11.1.19.22.27.35.07.13.12.27.15.4.04.2.06.4.07.59,0,.19,0,.39-.03.59-.01.21-.04.42-.08.63-.04.21-.13.4-.26.57-.11.13-.23.23-.38.31-.15.08-.3.13-.46.16-.42.09-.85.12-1.27.1-.42-.02-.85-.04-1.27-.07-.04.74-.05,1.47-.02,2.2.03.73.05,1.46.08,2.2.03.6.05,1.19.08,1.77.03.58.02,1.17-.02,1.77-.01.24-.04.47-.08.7-.04.23-.13.45-.28.67-.2.34-.51.57-.93.69Z"/>
      <path class="cls-15" d="M96.92,18.07c-.37.01-.74,0-1.11-.02-.37-.03-.73-.09-1.07-.19-.38-.1-.75-.25-1.1-.45-.35-.2-.65-.44-.9-.73-.37-.41-.64-.89-.8-1.43-.17-.54-.28-1.08-.35-1.61-.15-1.2-.17-2.4-.06-3.6.01-.21.05-.55.12-1.02.07-.47.15-.96.25-1.47.1-.51.21-1,.33-1.45.12-.46.23-.78.34-.97.13-.21.29-.42.49-.61.19-.19.41-.34.66-.44.45-.2.93-.32,1.43-.36s1-.08,1.51-.11c.37-.02.74-.04,1.11-.06.37-.01.74,0,1.11.02.29.03.58.05.86.08.28.03.56.09.82.18.15.05.29.11.43.19s.26.18.37.3c.12.15.18.33.18.53,0,.25-.01.5-.04.75-.03.25-.07.5-.14.75-.05.15-.12.3-.19.44-.07.14-.17.27-.29.38-.19.2-.42.34-.69.41-.19.06-.38.1-.57.1-.2,0-.39,0-.57-.03-.12-.01-.31-.03-.57-.06-.26-.02-.55-.05-.84-.07-.3-.02-.58-.03-.84-.04-.26,0-.46,0-.57.03-.17.04-.32.13-.44.29-.12.16-.22.33-.31.53-.09.19-.16.4-.21.61-.05.21-.09.4-.12.56.08,0,.24,0,.49-.02.24-.01.51-.02.79-.04.28-.01.55-.02.8-.04.25-.01.42-.02.5-.02.2-.01.4-.01.61,0,.21.01.41.06.59.15.18.1.31.25.38.45.04.08.06.18.07.3,0,.13,0,.25,0,.38-.01.13-.04.26-.07.38-.03.13-.07.23-.11.3-.13.2-.3.31-.52.32-.13.03-.37.03-.7.03-.34,0-.7-.02-1.08-.04-.38-.02-.74-.04-1.08-.06-.34-.02-.57-.03-.7-.05.03.26.08.53.15.79.07.26.2.5.39.71.11.14.24.24.4.31.16.07.32.12.5.14.26.04.53.03.79-.02.26-.05.53-.11.79-.19.41-.1.82-.21,1.22-.33.4-.12.82-.18,1.24-.18.32,0,.6.1.85.3.19.15.32.33.4.55.08.22.14.43.18.65.08.43.08.87,0,1.34-.09.47-.28.87-.58,1.19-.2.21-.43.38-.7.51-.27.13-.55.23-.84.32-.46.14-.94.24-1.44.3-.5.06-.99.09-1.48.09Z"/>
      <path class="cls-15" d="M106.96,17.65c-.26.01-.53,0-.78,0-.26-.02-.51-.06-.76-.12-.16-.04-.32-.09-.48-.16-.16-.07-.29-.17-.4-.31-.11-.14-.19-.28-.24-.44-.05-.16-.09-.32-.12-.48-.13-.58-.21-1.15-.22-1.74-.01-.58-.03-1.17-.04-1.77-.03-.86-.03-1.72-.02-2.57.01-.85.07-1.71.18-2.57.04-.36.09-.73.16-1.09.07-.36.17-.72.3-1.07.08-.25.18-.49.32-.73.13-.24.31-.44.54-.62.2-.16.52-.29.96-.39.44-.1.91-.18,1.41-.23.5-.06.98-.09,1.45-.11.47-.02.84-.03,1.1-.03.59.03,1.19.08,1.77.16.59.08,1.16.22,1.72.42.34.13.67.27.99.43.32.16.61.37.87.62.25.25.46.53.63.85s.3.65.4.99c.17.65.23,1.33.19,2.03-.05.7-.21,1.36-.51,1.97-.33.69-.8,1.26-1.41,1.73-.3.23-.65.41-1.03.54-.38.14-.77.21-1.17.23.16.19.34.36.55.51.2.15.43.26.66.32.34.1.7.14,1.08.11.38-.02.75,0,1.12.06.46.08.75.31.87.71.07.18.1.36.09.55,0,.19-.03.38-.07.55-.05.21-.13.42-.22.61-.09.19-.22.36-.38.5-.12.11-.26.2-.42.25-.16.06-.32.1-.48.12-.22.05-.46.07-.7.06-.24-.01-.48-.03-.7-.06-.46-.06-.93-.16-1.39-.28-.46-.12-.87-.33-1.23-.6-.26-.2-.5-.43-.71-.68-.21-.25-.41-.51-.6-.78-.19-.27-.38-.55-.56-.84-.18-.29-.36-.56-.55-.83.08.46.16.92.24,1.37s.13.91.16,1.39c.01.13.02.25.02.38s-.03.25-.1.35c-.08.13-.19.23-.33.31s-.28.14-.43.18c-.29.06-.58.11-.86.14-.28.03-.58.05-.88.07ZM110.29,10.99c.28.03.56-.04.84-.2.28-.16.51-.34.66-.55.3-.39.5-.83.58-1.33.09-.5.08-.99-.03-1.46-.05-.21-.13-.43-.24-.64-.11-.21-.25-.39-.44-.54-.13-.1-.28-.19-.45-.26-.17-.08-.33-.11-.51-.11-.23-.01-.44.04-.64.17-.21.13-.36.29-.47.51-.09.2-.16.4-.21.6-.05.2-.08.41-.11.62-.03.25-.05.5-.07.76-.02.26-.02.51,0,.76.01.16.04.34.09.53.05.19.11.36.2.53.09.16.19.3.32.42.13.12.27.19.45.22Z"/>
      <path class="cls-15" d="M45.5,35.97c-.45.02-.9.03-1.36,0-.46-.02-.9-.07-1.34-.16-.53-.1-1.03-.29-1.5-.56-.47-.28-.89-.59-1.26-.96-.24-.25-.46-.52-.65-.8s-.36-.58-.5-.89c-.22-.53-.38-1.06-.46-1.61-.08-.55-.13-1.11-.14-1.67-.01-.85.08-1.7.29-2.55.2-.85.54-1.63,1-2.35.25-.39.54-.75.86-1.1.32-.34.7-.63,1.12-.85.59-.33,1.22-.56,1.88-.7.66-.14,1.33-.22,2-.22.59,0,1.18.07,1.75.21.57.14,1.11.36,1.6.66.46.29.85.64,1.17,1.05.32.41.54.86.66,1.33.13.48.16.96.09,1.45-.07.49-.25.96-.56,1.4-.25.38-.58.67-.99.88-.21.1-.45.18-.72.23-.27.05-.55.07-.82.05s-.54-.07-.78-.15c-.24-.08-.45-.2-.6-.37-.17-.19-.31-.4-.41-.65-.1-.24-.2-.48-.31-.7-.08-.15-.17-.3-.28-.44-.11-.14-.24-.26-.4-.35-.22-.12-.48-.16-.75-.1-.28.06-.5.18-.65.38-.17.23-.29.5-.36.82s-.09.65-.07.99c.02.34.08.67.19.99.11.32.25.59.44.82.07.1.16.18.27.25.11.07.22.13.33.18.22.1.45.16.68.19.23.03.46.03.68.02.15,0,.4-.01.75-.04.36-.02.74-.05,1.14-.08.4-.02.78-.04,1.14-.05.36,0,.61,0,.75.05.62.14,1.04.51,1.27,1.11.09.29.15.6.16.94s-.02.67-.11.99c-.09.33-.22.63-.4.9-.18.28-.41.49-.68.64-.17.1-.35.18-.53.23-.18.06-.36.12-.55.18-.5.14-1.01.23-1.53.29s-1.03.1-1.55.12Z"/>
      <path class="cls-15" d="M60.87,35.7c-.75.26-1.53.38-2.33.37-.8-.02-1.58-.17-2.33-.46-.67-.26-1.29-.64-1.84-1.14-.56-.49-1-1.05-1.35-1.66-.4-.73-.68-1.5-.85-2.33-.17-.83-.21-1.65-.1-2.46.07-.64.22-1.26.48-1.88.25-.61.58-1.18.99-1.71.29-.38.62-.72,1-1.03.38-.31.78-.59,1.2-.83.48-.25.99-.45,1.54-.59.55-.14,1.1-.22,1.66-.23.59,0,1.18.07,1.76.22.58.14,1.13.35,1.65.63.38.19.74.42,1.07.69.33.28.62.58.87.9.48.64.83,1.35,1.07,2.14s.34,1.58.32,2.36c-.03.71-.15,1.41-.38,2.1-.22.69-.53,1.34-.91,1.95-.19.33-.4.64-.63.93-.24.29-.5.57-.79.82-.3.28-.63.51-.98.7-.35.19-.72.36-1.1.5ZM58.73,30.95c.22.2.48.33.77.4.29.07.59.08.89.03.19-.02.36-.08.53-.16.17-.08.32-.18.47-.29.26-.21.49-.46.67-.74.19-.28.32-.58.42-.89.24-.78.3-1.58.18-2.42-.04-.25-.1-.49-.19-.72-.09-.23-.2-.45-.35-.67-.16-.23-.36-.41-.61-.56-.25-.15-.52-.26-.79-.32-.28-.06-.56-.08-.85-.05-.29.03-.56.12-.81.25-.34.19-.62.46-.84.83-.22.36-.38.76-.5,1.19-.11.43-.17.87-.16,1.32,0,.45.06.86.17,1.22.09.29.22.57.38.85.16.28.37.52.63.72Z"/>
      <path class="cls-15" d="M72.3,35.51c-.15.08-.37.12-.67.12-.3,0-.62,0-.96-.02-.34-.02-.66-.05-.98-.08-.32-.04-.56-.07-.71-.09-.17-.02-.37-.07-.59-.12-.22-.06-.36-.17-.4-.33-.19-.96-.31-1.94-.37-2.92-.06-.98-.11-1.96-.15-2.94-.04-.81-.06-1.63-.06-2.44s.06-1.62.18-2.42c.04-.29.1-.57.17-.84.07-.28.19-.53.35-.77.11-.14.23-.27.37-.39.14-.12.29-.23.47-.3.45-.2.93-.32,1.43-.37.5-.04,1-.06,1.51-.05.26.01.54.04.81.08s.52.14.71.3c.17.15.37.43.6.83.23.4.46.84.68,1.3.22.47.43.92.61,1.35.19.43.32.75.42.95.08-.19.21-.49.4-.92.19-.43.39-.87.6-1.33.22-.46.44-.89.65-1.29.22-.4.41-.67.56-.81.11-.09.21-.16.33-.23.11-.06.23-.11.37-.13.46-.1.94-.14,1.43-.12.49.02.97.07,1.45.14.26.04.53.1.78.19.26.09.49.22.68.39.19.16.34.36.46.58.12.23.21.46.28.69.11.36.18.74.21,1.12.03.38.06.77.07,1.15.07,1.33.06,2.65-.02,3.96s-.2,2.63-.36,3.96c0,.05,0,.14-.02.26-.01.13-.03.26-.05.4-.02.14-.04.28-.06.4-.02.13-.04.21-.05.24-.03.11-.11.19-.24.23-.13.04-.25.08-.36.1-.34.06-.69.12-1.05.17-.36.05-.71.08-1.05.09-.23,0-.45,0-.66-.03-.22-.02-.43-.06-.64-.12-.3-.1-.53-.28-.67-.53-.13-.24-.21-.5-.22-.78-.01-.28,0-.55.02-.82.12-.76.22-1.52.32-2.28.09-.76.17-1.52.24-2.28.07-.59.12-1.17.15-1.75.03-.58.04-1.16,0-1.75-.08.18-.18.42-.29.72-.11.31-.23.64-.36,1-.13.36-.26.74-.41,1.13-.15.39-.3.75-.46,1.1-.16.34-.32.65-.49.91-.17.26-.33.44-.51.54-.09.05-.22.08-.4.08-.04,0-.13,0-.26,0-.13,0-.27,0-.43,0h-.68c-.09,0-.18-.02-.25-.06-.07-.04-.14-.09-.21-.15-.11-.08-.19-.16-.26-.25-.07-.09-.13-.19-.2-.29-.24-.35-.44-.71-.61-1.09-.17-.38-.33-.76-.49-1.14-.15-.39-.3-.78-.45-1.17-.15-.39-.31-.78-.5-1.15-.01.31-.01.62,0,.92.01.3.03.61.06.92.08.99.19,1.97.35,2.96.15.98.31,1.96.47,2.94.04.24.07.48.09.71.02.24,0,.48-.07.71-.04.18-.11.34-.22.5-.11.16-.24.28-.42.37Z"/>
      <path class="cls-15" d="M90.39,35.24c-.12.08-.3.13-.54.17s-.49.06-.75.08c-.26.01-.52.02-.77,0-.25,0-.44-.02-.57-.05-.24-.04-.47-.1-.7-.19-.23-.09-.42-.22-.56-.39-.17-.2-.29-.43-.35-.69-.06-.26-.1-.52-.13-.77-.03-.19-.05-.49-.06-.91-.01-.42-.03-.9-.04-1.44-.01-.54-.02-1.11-.03-1.71,0-.6,0-1.17,0-1.71v-1.44c0-.43,0-.73.02-.92.03-.35.05-.7.08-1.06.03-.36.08-.71.16-1.06.04-.19.09-.38.16-.56.07-.19.16-.36.28-.53.17-.23.42-.38.75-.47.18-.04.37-.06.56-.08.19-.01.38-.02.56-.04.26-.01.53-.02.78-.03.26,0,.52.02.78.08.28.06.55.17.81.32.26.15.49.33.67.54.15.18.25.38.33.61.07.23.11.47.11.7.01.29.02.58,0,.86,0,.29-.02.58-.05.86-.03.41-.06.83-.09,1.24-.03.41-.08.82-.13,1.22-.12.93-.22,1.85-.3,2.76-.08.91-.17,1.83-.28,2.76-.04.34-.1.69-.18,1.05-.05.15-.12.29-.2.43-.08.14-.19.25-.34.34Z"/>
      <path class="cls-15" d="M100.45,35.8c-.45.02-.9.03-1.36,0-.46-.02-.9-.07-1.34-.16-.53-.1-1.03-.29-1.5-.56-.47-.28-.89-.59-1.26-.96-.24-.25-.46-.52-.65-.8s-.36-.58-.5-.89c-.22-.53-.38-1.06-.46-1.61-.08-.55-.13-1.11-.14-1.67-.01-.85.08-1.7.29-2.55.2-.85.54-1.63,1-2.35.25-.39.54-.75.86-1.1.32-.34.7-.63,1.12-.85.59-.33,1.22-.56,1.88-.7.66-.14,1.33-.22,2-.22.59,0,1.18.07,1.75.21.57.14,1.11.36,1.6.66.46.29.85.64,1.17,1.05.32.41.54.86.66,1.33.13.48.16.96.09,1.45-.07.49-.25.96-.56,1.4-.25.38-.58.67-.99.88-.21.1-.45.18-.72.23-.27.05-.55.07-.82.05s-.54-.07-.78-.15c-.24-.08-.45-.2-.6-.37-.17-.19-.31-.4-.41-.65-.1-.24-.2-.48-.31-.7-.08-.15-.17-.3-.28-.44-.11-.14-.24-.26-.4-.35-.22-.12-.48-.16-.75-.1-.28.06-.5.18-.65.38-.17.23-.29.5-.36.82s-.09.65-.07.99c.02.34.08.67.19.99.11.32.25.59.44.82.07.1.16.18.27.25.11.07.22.13.33.18.22.1.45.16.68.19.23.03.46.03.68.02.15,0,.4-.01.75-.04.36-.02.74-.05,1.14-.08.4-.02.78-.04,1.14-.05.36,0,.61,0,.75.05.62.14,1.04.51,1.27,1.11.09.29.15.6.16.94s-.02.67-.11.99c-.09.33-.22.63-.4.9-.18.28-.41.49-.68.64-.17.1-.35.18-.53.23-.18.06-.36.12-.55.18-.5.14-1.01.23-1.53.29s-1.03.1-1.55.12Z"/>
      <path class="cls-15" d="M113.48,34.97c-.78.04-1.56,0-2.34-.11-.78-.11-1.55-.28-2.3-.51-.21-.06-.42-.13-.62-.21-.2-.07-.4-.16-.58-.26-.19-.1-.35-.22-.51-.36-.15-.14-.27-.3-.37-.49-.09-.19-.14-.43-.14-.71s.03-.58.09-.88c.06-.3.14-.59.25-.86.11-.28.22-.5.36-.68.09-.12.2-.23.34-.33.13-.09.27-.15.42-.18.19-.02.37-.02.55.02.18.04.35.09.51.17.46.21.93.42,1.41.61.48.19.96.37,1.47.52.17.05.34.09.52.13s.34.07.52.09c.2.03.38,0,.55-.1.17-.09.26-.23.29-.4.03-.12,0-.25-.11-.38-.1-.13-.21-.22-.33-.27-.16-.06-.32-.12-.48-.16-.16-.04-.32-.08-.48-.12-.57-.15-1.13-.31-1.7-.48-.56-.17-1.09-.4-1.6-.68-.32-.17-.62-.38-.9-.63s-.5-.53-.64-.85c-.2-.43-.3-.88-.31-1.37s.06-.95.21-1.39c.15-.44.36-.86.64-1.27.28-.41.62-.75,1-1.02.34-.24.71-.43,1.11-.56.4-.14.8-.24,1.21-.32.65-.11,1.31-.16,1.97-.15.67.01,1.32.09,1.95.24.34.09.68.2,1.02.33.34.13.65.3.94.52.21.14.4.3.57.5.17.19.29.4.37.63.07.2.09.41.07.63-.02.22-.07.43-.15.63-.08.2-.2.41-.37.63-.17.22-.36.43-.57.62-.22.19-.45.35-.68.48-.24.13-.47.19-.69.21-.15.01-.29,0-.45-.07-.15-.06-.3-.13-.45-.22-.3-.18-.58-.38-.83-.63-.25-.24-.52-.47-.79-.68-.17-.14-.35-.26-.54-.37-.19-.11-.38-.18-.59-.23-.32-.08-.61-.06-.88.06-.27.11-.49.28-.65.51-.17.23-.26.48-.29.77-.03.29.04.57.2.84.11.18.24.32.4.44.16.12.33.22.52.29.45.2.92.35,1.41.45.49.1.97.21,1.45.34.32.08.63.17.94.27.31.11.6.25.86.42.34.24.64.52.89.84.25.33.44.68.57,1.05.33.91.27,1.81-.18,2.68-.12.25-.28.49-.49.71-.2.23-.43.41-.68.56-.42.25-.88.43-1.37.54-.49.11-.99.18-1.49.21Z"/>
    </g>
  </g>
</svg>